<svg xmlns="http://www.w3.org/2000/svg" width="0" height="0" style="position:absolute"><symbol id="custom-icon-arrow-right" viewBox="0 0 512 512"><path d="M146.7 512c-4.8 0-9.6-1.9-13.2-5.8-7.3-7.7-7.3-20.1 0-27.8L344.4 256 133.5 33.6c-7.3-7.7-7.3-20.1 0-27.8 7.3-7.7 19.1-7.7 26.4 0l214.8 226.4c12.5 13.1 12.5 34.5 0 47.6L159.9 506.2c-3.7 3.9-8.4 5.8-13.2 5.8z"/></symbol><symbol id="custom-icon-like" viewBox="0 0 512 512"><path fill="currentColor" d="M282.4-.4c-23.6 0-15.7 50.5-15.7 50.5s-50.5 139.3-98.8 176.4c-10.4 10.9-16.8 22.9-20.9 32.7-.9 2.4-1.8 4.7-2.5 6.8-3.2 6.6-10.1 16.7-24.9 25.6l48.3 210.1s74.8 9.7 149.8 8.2c30 2.4 61.8 2.6 87.1-2.8 86-18.3 64.4-78.2 64.4-78.2 46.3-34.8 20-78.3 20-78.3 41.2-43 .7-79.1.7-79.1s22.3-34.7-6.5-61c-35.9-32.8-133.2-11-133.2-11-6.8 1.2-14 2.6-21.8 4.5 0 0-33.7 15.7 0-86.5C362.2 15.4 306-.4 282.4-.4zM133.2 486.7L96.6 312.8c-2.1-9.9-12.1-18.1-22.3-18.1H4.4l-.1 210h114.1c10.3.1 16.8-8.1 14.8-18z"/></symbol><symbol id="custom-icon-reply" viewBox="0 0 512 512"><path d="M187.9 354.5h247.6l-91.9 90.7 28.3 27.9L512 334.8 371.8 196.5l-28.3 27.9 91.9 90.7H187.9c-81.6 0-147.9-65.5-147.9-146 0-37.8 19.4-70 35.7-90.3L88 63.4 56.7 38.9 44.3 54.4C24.1 79.6 0 120 0 169.1c0 102.3 84.3 185.4 187.9 185.4z"/></symbol></svg>