<svg xmlns="http://www.w3.org/2000/svg" viewBox="0 0 512 512"><path fill="currentColor" d="M282.4-.4c-23.6 0-15.7 50.5-15.7 50.5s-50.5 139.3-98.8 176.4c-10.4 10.9-16.8 22.9-20.9 32.7-.9 2.4-1.8 4.7-2.5 6.8-3.2 6.6-10.1 16.7-24.9 25.6l48.3 210.1s74.8 9.7 149.8 8.2c30 2.4 61.8 2.6 87.1-2.8 86-18.3 64.4-78.2 64.4-78.2 46.3-34.8 20-78.3 20-78.3 41.2-43 .7-79.1.7-79.1s22.3-34.7-6.5-61c-35.9-32.8-133.2-11-133.2-11-6.8 1.2-14 2.6-21.8 4.5 0 0-33.7 15.7 0-86.5C362.2 15.4 306-.4 282.4-.4zM133.2 486.7L96.6 312.8c-2.1-9.9-12.1-18.1-22.3-18.1H4.4l-.1 210h114.1c10.3.1 16.8-8.1 14.8-18z"/></svg>